<?xml version="1.0" encoding="UTF-8" standalone="no"?>
<!DOCTYPE svg PUBLIC "-//W3C//DTD SVG 1.1//EN" "http://www.w3.org/Graphics/SVG/1.1/DTD/svg11.dtd">
<svg width="100%" height="100%" viewBox="0 0 76 76" version="1.1" xmlns="http://www.w3.org/2000/svg" xmlns:xlink="http://www.w3.org/1999/xlink" xml:space="preserve" xmlns:serif="http://www.serif.com/" style="fill-rule:evenodd;clip-rule:evenodd;stroke-linejoin:round;stroke-miterlimit:2;">
    <g id="macOS-background" serif:id="macOS background">
    </g>
    <g transform="matrix(3.1655,0,0,3.1655,37.986,37.986)">
        <g transform="matrix(1,0,0,1,-12,-12)">
            <clipPath id="_clip1">
                <rect x="0" y="0" width="24" height="24"/>
            </clipPath>
            <g clip-path="url(#_clip1)">
                <path d="M0,0L24,0L24,24L0,24L0,0ZM13.97,21.49C13.34,21.72 12.68,21.89 12,22C12.68,21.88 13.33,21.71 13.97,21.49ZM12,22C11.32,21.88 10.67,21.71 10.03,21.49C10.67,21.71 11.32,21.88 12,22Z" style="fill:none;fill-rule:nonzero;"/>
                <path d="M8.55,12C7.48,11.29 6.3,10.73 5.02,10.39C6.3,10.73 7.48,11.29 8.55,12ZM18.98,10.39C17.69,10.73 16.49,11.3 15.41,12.03C16.49,11.3 17.69,10.73 18.98,10.39Z" style="fill:rgb(232,234,237);fill-rule:nonzero;"/>
                <path d="M15.49,9.63C15.31,6.84 14.18,4.12 12.06,2C9.92,4.14 8.74,6.86 8.51,9.63C9.79,10.31 10.97,11.19 12,12.26C13.03,11.2 14.21,10.32 15.49,9.63ZM8.99,12.28C8.85,12.18 8.69,12.09 8.54,11.99C8.69,12.1 8.85,12.18 8.99,12.28ZM15.41,12.03C15.28,12.12 15.14,12.19 15.01,12.29C15.14,12.19 15.28,12.12 15.41,12.03ZM12,15.45C9.85,12.17 6.18,10 2,10C2,15.32 5.36,19.82 10.03,21.49C10.66,21.72 11.32,21.89 12,22C12.68,21.88 13.33,21.71 13.97,21.49C18.64,19.82 22,15.32 22,10C17.82,10 14.15,12.17 12,15.45Z" style="fill:rgb(232,234,237);fill-rule:nonzero;"/>
                <clipPath id="_clip2">
                    <path d="M15.49,9.63C15.31,6.84 14.18,4.12 12.06,2C9.92,4.14 8.74,6.86 8.51,9.63C9.79,10.31 10.97,11.19 12,12.26C13.03,11.2 14.21,10.32 15.49,9.63ZM8.99,12.28C8.85,12.18 8.69,12.09 8.54,11.99C8.69,12.1 8.85,12.18 8.99,12.28ZM15.41,12.03C15.28,12.12 15.14,12.19 15.01,12.29C15.14,12.19 15.28,12.12 15.41,12.03ZM12,15.45C9.85,12.17 6.18,10 2,10C2,15.32 5.36,19.82 10.03,21.49C10.66,21.72 11.32,21.89 12,22C12.68,21.88 13.33,21.71 13.97,21.49C18.64,19.82 22,15.32 22,10C17.82,10 14.15,12.17 12,15.45Z" clip-rule="nonzero"/>
                </clipPath>
                <g clip-path="url(#_clip2)">
                    <path d="M15.49,9.63C14.21,10.32 13.03,11.2 12,12.26C10.97,11.19 9.79,10.31 8.51,9.63C8.74,6.86 9.92,4.14 12.06,2C14.18,4.12 15.31,6.84 15.49,9.63Z" style="fill:rgb(25,135,84);"/>
                    <path d="M8.933,12.241C8.808,12.156 8.67,12.077 8.54,11.99C8.673,12.087 8.814,12.161 8.941,12.246C10.144,13.115 11.182,14.202 12,15.45C14.15,12.17 17.82,10 22,10C22,15.32 18.64,19.82 13.97,21.49C13.33,21.71 12.68,21.88 12,22C11.32,21.89 10.66,21.72 10.03,21.49C5.36,19.82 2,15.32 2,10C4.586,10 6.977,10.831 8.933,12.241Z" style="fill:rgb(25,135,84);"/>
                </g>
            </g>
        </g>
    </g>
</svg>
